<?xml version="1.0" encoding="utf-8"?>
<svg viewBox="169.827 200.862 62.068 28.447" xmlns="http://www.w3.org/2000/svg">
  <path d="M2.76159231,0.435 L13.1064199,0.435 C13.5332628,0.414625322 13.943844,0.265551903 14.2838494,0.0075 C14.3269666,0.00559435196 14.369025,0.021147923 14.4004638,0.050625 C14.4347838,0.0909191858 14.4581047,0.139352487 14.4681754,0.19125 L15.7434105,5.95875 L15.7434105,6.031875 C15.7466469,6.10084896 15.722294,6.16828433 15.6756989,6.219375 C15.6374047,6.26495265 15.5810998,6.29164816 15.5214669,6.2925 C15.3747585,6.2925 15.2092412,6.0425 15.0249152,5.5425 C14.8658659,5.09557415 14.6630039,4.66536847 14.4192726,4.258125 C13.8867927,3.40374211 13.1861771,2.66577038 12.3597114,2.08875 C11.548692,1.53502646 10.6296258,1.15807071 9.66253275,0.9825 L9.66253275,14.34375 C9.63933382,14.8227813 9.68879367,15.3025596 9.80924121,15.766875 C9.89997097,16.0315298 10.0828012,16.2550298 10.3246017,16.396875 C10.6388648,16.5554184 10.9828948,16.6467454 11.3346331,16.665 C11.797329,16.71375 12.0286769,16.831875 12.0286769,17.019375 C12.0381413,17.1047313 12.0007693,17.1885556 11.9308713,17.23875 C11.8278297,17.2878072 11.7137067,17.3091384 11.5998368,17.300625 L4.1477992,17.300625 C4.02593402,17.3109056 3.90347313,17.2895904 3.79231331,17.23875 C3.72105569,17.1895373 3.68274477,17.1052284 3.69262679,17.019375 C3.69262679,16.831875 3.90516598,16.715625 4.33024435,16.670625 C4.65174322,16.6489837 4.96845696,16.5814188 5.27068322,16.47 C5.54754014,16.3494188 5.76574257,16.1251639 5.87820673,15.845625 C5.99607507,15.560625 6.05500924,15.060625 6.05500924,14.345625 L6.05500924,0.984375 C5.09152847,1.15700471 4.1755632,1.5308082 3.36723494,2.08125 C2.53870403,2.66113308 1.83518909,3.40070316 1.29826942,4.25625 C1.05057819,4.66416568 0.845733533,5.09645093 0.686984158,5.54625 C0.506419894,6.03875 0.342783531,6.285 0.196075067,6.285 C0.142096316,6.28253541 0.0922117028,6.25559902 0.0606518694,6.211875 C0.0179595879,6.15897767 -0.00349138619,6.09215286 0.000463781581,6.024375 L0.000463781581,5.95125 L1.43369262,0.170625 C1.44438306,0.124774506 1.47021662,0.0838341034 1.50704685,0.054375 C1.53973057,0.0219165194 1.58324118,0.00256475442 1.62930391,1.24344979e-14 C1.73635329,0.0613218834 1.8371444,0.132911134 1.93024435,0.21375 C2.17540073,0.376657584 2.4676067,0.454423541 2.76159231,0.435 L2.76159231,0.435 Z" id="Path" fill="#000000" transform="matrix(1, 0, 0, 1, 170.894366, 206.277494)"/>
  <path d="M25.5164512,0.105 C28.0656675,0.105 30.1722506,0.93 31.8362005,2.58 C33.5001503,4.23 34.3314983,6.32625 34.3302458,8.86875 C34.3302458,11.40125 33.4988964,13.49875 31.8362005,15.16125 C30.1735045,16.82375 28.0669215,17.655 25.5164512,17.655 C24.5139907,17.6634102 23.5165714,17.5127775 22.5615923,17.20875 C21.6473588,16.9135952 20.7923268,16.4604418 20.0355735,15.87 C18.9723534,15.0678999 18.1187736,14.0221073 17.5471722,12.82125 C16.9606763,11.5863912 16.6629181,10.2349596 16.6763259,8.86875 C16.6763259,6.32625 17.5083008,4.23 19.1722506,2.58 C20.8362005,0.93 22.950934,0.105 25.5164512,0.105 Z M25.5164512,0.63 C23.9314983,0.63 22.7177052,1.335 21.8750719,2.745 C21.0324387,4.155 20.6111221,6.19625 20.6111221,8.86875 C20.6111221,11.54125 21.0324387,13.581875 21.8750719,14.990625 C22.7177052,16.399375 23.9314983,17.104375 25.5164512,17.105625 C27.0926268,17.105625 28.2976425,16.400625 29.1314983,14.990625 C29.9653541,13.580625 30.382282,11.54 30.382282,8.86875 C30.382282,6.195 29.9634732,4.15375 29.1258556,2.745 C28.2882381,1.33625 27.0851033,0.63125 25.5164512,0.63 Z" id="Shape" fill="#000000" fill-rule="nonzero" transform="matrix(1, 0, 0, 1, 170.894366, 206.277494)"/>
  <path d="M36.7584575,0.435 L43.2794606,0.435 C43.4147131,0.423578255 43.550546,0.448845844 43.6725641,0.508125 C43.7502027,0.564936178 43.792312,0.658140817 43.7835359,0.75375 C43.7835359,0.9075 43.6255422,1.014375 43.3114356,1.070625 C43.0672873,1.10481182 42.8295851,1.1749518 42.6061064,1.27875 C42.3372001,1.41408972 42.1242709,1.63895665 42.0042255,1.914375 C41.8913729,2.1825 41.8330657,2.68875 41.8330657,3.429375 L41.8330657,14.319375 C41.8330657,15.069375 41.8913729,15.568125 42.0042255,15.84 C42.1251571,16.11994 42.342686,16.347432 42.6173917,16.48125 C42.835575,16.5719384 43.0643268,16.634932 43.2982694,16.66875 C43.6217804,16.730625 43.7835359,16.839375 43.7835359,16.993125 C43.7956976,17.0846336 43.7611002,17.1761358 43.6913729,17.236875 C43.5611524,17.2905606 43.4197685,17.3117984 43.2794606,17.29875 L36.7584575,17.29875 C36.6120743,17.3131168 36.4644389,17.2898788 36.3296174,17.23125 C36.2577415,17.17408 36.2201436,17.0842684 36.2299309,16.993125 C36.2299309,16.839375 36.3879246,16.730625 36.7020312,16.66875 C36.9409339,16.6312902 37.1741296,16.5638811 37.3960751,16.468125 C37.6701861,16.3334987 37.8874713,16.1062616 38.0092412,15.826875 C38.1314983,15.545625 38.197329,15.04125 38.197329,14.3175 L38.197329,2.805 C38.2100904,2.45455396 38.1254724,2.10740676 37.9528149,1.801875 C37.786878,1.5311582 37.5374372,1.32130916 37.2418431,1.20375 C37.0862765,1.15255762 36.9263743,1.11553106 36.7641001,1.093125 C36.412376,1.0275 36.2355735,0.905625 36.2355735,0.751875 C36.2272689,0.65504526 36.2718058,0.561237061 36.3521879,0.50625 C36.4794318,0.448774391 36.6191763,0.424266529 36.7584575,0.435 Z" id="Path" fill="#000000" transform="matrix(1, 0, 0, 1, 170.894366, 206.277494)"/>
  <g id="Group-3" transform="matrix(1, 0, 0, 1, 217.905489, 208.763761)">
    <polygon id="Path" fill="#EC2227" points="4.10595611 12.69 4.10595611 8.589375 2.7533531e-14 8.589375 2.7533531e-14 4.08375 4.10595611 4.08375 4.10595611 2.7533531e-14 8.60877743 2.7533531e-14 8.60877743 4.08375 12.7297806 4.08375 12.7297806 8.589375 8.60877743 8.589375 8.60877743 12.69"/>
    <polygon id="Path" fill="#FFFFFF" points="6.02633229 10.77375 6.02633229 6.673125 1.92225705 6.673125 1.92225705 6 6.02633229 6 6.02633229 1.91625 6.68652038 1.91625 6.68652038 6 10.8075235 6 10.8075235 6.673125 6.68652038 6.673125 6.68652038 10.77375"/>
  </g>
</svg>